<svg width="32" height="32" viewBox="0 0 32 32" fill="none" xmlns="http://www.w3.org/2000/svg">
<rect width="32" height="32" fill="#2B8EFF"/>
<path d="M4.69 21V10.68H6.745V21H4.69ZM1.33 12.27V10.455H10.105V12.27H1.33ZM10.8086 17.28L14.4086 10.455H16.6586L12.9686 17.28H10.8086ZM10.8086 18.48V17.28L11.5586 16.695H19.1186V18.48H10.8086ZM15.7886 21V14.28H17.7986V21H15.7886ZM21.9613 21V19.185H24.6463C25.3263 19.185 25.9213 19.045 26.4313 18.765C26.9413 18.475 27.3363 18.07 27.6163 17.55C27.9063 17.03 28.0513 16.415 28.0513 15.705C28.0513 15.015 27.9063 14.415 27.6163 13.905C27.3263 13.385 26.9263 12.985 26.4163 12.705C25.9063 12.415 25.3163 12.27 24.6463 12.27H21.9163V10.455H24.6763C25.4563 10.455 26.1763 10.585 26.8363 10.845C27.5063 11.105 28.0863 11.475 28.5763 11.955C29.0763 12.425 29.4613 12.98 29.7313 13.62C30.0113 14.26 30.1513 14.96 30.1513 15.72C30.1513 16.48 30.0113 17.185 29.7313 17.835C29.4613 18.475 29.0813 19.035 28.5913 19.515C28.1013 19.985 27.5213 20.35 26.8513 20.61C26.1913 20.87 25.4763 21 24.7063 21H21.9613ZM20.5663 21V10.455H22.6063V21H20.5663Z" fill="white"/>
</svg>
